<?xml version="1.0" encoding="utf-8"?>
<!-- Generator: Adobe Illustrator 16.0.0, SVG Export Plug-In . SVG Version: 6.00 Build 0)  -->
<!DOCTYPE svg PUBLIC "-//W3C//DTD SVG 1.1//EN" "http://www.w3.org/Graphics/SVG/1.1/DTD/svg11.dtd">
<svg version="1.1" id="Layer_1" xmlns="http://www.w3.org/2000/svg" xmlns:xlink="http://www.w3.org/1999/xlink" x="0px" y="0px"
	 width="226.018px" height="136.694px" viewBox="0 0 226.018 136.694" enable-background="new 0 0 226.018 136.694"
	 xml:space="preserve">
<g>
	<g>
		<path fill="#F15D22" d="M0,80.306h6.128v37.926h21.33v5.115H0V80.306z"/>
		<path fill="#F15D22" d="M30.522,97.122c2.043-3.488,5.908-5.233,11.597-5.233c0.36,0,0.721,0.011,1.082,0.029
			c0.361,0.021,0.721,0.05,1.082,0.088c3.004,0.433,5.768,1.922,8.292,4.47c2.523,2.548,3.786,6.724,3.786,12.523
			c0,0.863-0.09,1.862-0.27,2.999c-0.181,1.137-0.512,2.314-0.992,3.528c-0.882,2.117-2.324,4.058-4.327,5.821
			c-2.002,1.764-4.887,2.724-8.651,2.881c-4.486,0.235-8.051-0.852-10.696-3.263c-2.643-2.411-3.965-6.399-3.965-11.967
			C27.458,104.57,28.479,100.611,30.522,97.122z M35.689,117.291c1.804,1.843,3.746,2.764,5.829,2.764c0.039,0,0.069,0,0.089,0
			s0.05,0,0.091,0c2.362-0.039,4.516-1.156,6.458-3.352s2.773-5.233,2.494-9.114c-0.12-3.764-1.111-6.595-2.974-8.497
			c-1.863-1.9-3.915-2.852-6.159-2.852c-2.283,0-4.356,1.02-6.219,3.057c-1.863,2.04-2.734,5.116-2.613,9.231
			C32.886,112.527,33.888,115.448,35.689,117.291z"/>
		<path fill="#F15D22" d="M58.281,80.306h5.228v43.041h-5.228V80.306z"/>
		<path d="M86.7,80.306c0.521,0,1.042,0.028,1.563,0.087c0.52,0.06,1.042,0.129,1.562,0.207c3.604,0.745,6.899,2.764,9.885,6.056
			c2.982,3.293,4.476,7.958,4.476,13.995c0,0.98-0.041,1.969-0.12,2.969c-0.082,1.001-0.202,2.01-0.362,3.028
			c-0.681,4.194-2.312,8.026-4.896,11.495c-2.583,3.47-6.62,5.204-12.108,5.204H69.157V80.306H86.7z M88.084,117.82
			c3.163,0,5.577-1.637,7.24-4.91c1.662-3.272,2.494-6.909,2.494-10.908c0-0.078,0-0.155,0-0.234c0-0.078,0-0.177,0-0.295
			c-0.08-4.035-1.063-7.732-2.945-11.082c-1.884-3.354-4.768-5.028-8.652-5.028H74.865v32.458H88.084z"/>
		<path d="M109.294,95.857c2.282-2.959,5.786-4.438,10.515-4.438c4.887,0,8.312,1.401,10.274,4.204
			c1.962,2.803,3.185,5.87,3.665,9.202c0.121,0.862,0.2,1.726,0.24,2.587c0.039,0.863,0.06,1.705,0.06,2.527h-23.193
			c0.12,3.528,0.991,6.078,2.614,7.645c1.622,1.568,3.414,2.354,5.378,2.354c0.078,0,0.169,0,0.27,0c0.1,0,0.189,0,0.271,0
			c1.762-0.119,3.433-0.727,5.016-1.823c1.582-1.098,2.734-2.588,3.455-4.47h5.228c-0.24,3.215-1.562,5.724-3.966,7.527
			c-2.403,1.803-5.508,2.822-9.312,3.057c-4.566-0.157-7.933-1.382-10.095-3.674c-2.163-2.294-3.546-4.812-4.146-7.557
			c-0.241-0.941-0.392-1.871-0.451-2.793c-0.06-0.921-0.051-1.794,0.03-2.616C105.628,102.729,107.01,98.818,109.294,95.857z
			 M128.341,105.295c-0.241-3.135-1.183-5.516-2.825-7.145c-1.643-1.626-3.465-2.439-5.467-2.439c-0.081,0-0.161,0-0.24,0
			c-0.082,0-0.162,0-0.24,0c-1.884,0.117-3.666,0.971-5.348,2.559c-1.683,1.586-2.805,3.93-3.366,7.025H128.341z"/>
		<path d="M136.211,114.115c0.801,0,1.623,0,2.463,0c0.08,0,0.17,0,0.271,0c0.1,0,0.21,0,0.331,0
			c0.239,2.352,1.142,4.038,2.704,5.057c1.561,1.02,3.264,1.549,5.105,1.588c0.039,0,0.07,0,0.092,0c0.019,0,0.049,0,0.09,0
			c1.922,0,3.674-0.451,5.257-1.352c1.582-0.902,2.374-2.059,2.374-3.47c0.12-1.647-0.602-2.804-2.164-3.47
			s-3.404-1.235-5.527-1.705c-0.361-0.077-0.731-0.156-1.111-0.235c-0.381-0.079-0.771-0.177-1.172-0.294
			c-2.604-0.588-4.967-1.509-7.09-2.764c-2.124-1.254-3.064-3.527-2.825-6.82c0.241-2.548,1.171-4.537,2.795-5.969
			c1.622-1.43,4.315-2.361,8.081-2.793c0.682,0,1.401,0.02,2.164,0.06c0.76,0.04,1.542,0.116,2.344,0.234
			c2.002,0.315,3.845,1.099,5.527,2.353c1.682,1.254,2.604,3.449,2.764,6.585h-5.228c-0.281-1.725-1.032-2.958-2.253-3.704
			c-1.223-0.744-2.554-1.117-3.996-1.117c-0.121,0-0.231,0-0.33,0c-0.102,0-0.211,0-0.331,0c-1.683,0.117-3.235,0.598-4.657,1.44
			s-2.133,1.814-2.133,2.911c-0.119,1.568,0.602,2.685,2.164,3.352c1.562,0.666,3.424,1.255,5.588,1.764
			c0.4,0.08,0.801,0.167,1.201,0.265c0.4,0.099,0.801,0.187,1.201,0.265c2.564,0.627,4.908,1.52,7.03,2.676
			c2.123,1.156,3.186,3.165,3.186,6.027c0,0.039,0,0.087,0,0.146c0,0.059,0,0.107,0,0.146s0,0.088,0,0.146s0,0.109,0,0.148
			c0,0.117,0,0.234,0,0.353c0,0.117,0,0.234,0,0.353c-0.201,2.117-1.362,4.067-3.485,5.85c-2.123,1.784-5.228,2.773-9.313,2.971
			c-0.041,0-0.091,0-0.149,0c-0.061,0-0.111,0-0.151,0c-0.081-0.04-0.14-0.06-0.181-0.06c-0.039,0-0.101,0-0.18,0
			c-0.682-0.04-1.402-0.099-2.162-0.177c-0.762-0.078-1.524-0.195-2.284-0.354c-2.044-0.431-3.917-1.352-5.617-2.763
			c-1.704-1.41-2.555-3.958-2.555-7.644C134.689,114.115,135.411,114.115,136.211,114.115z"/>
		<path d="M162.049,80.306h5.227v6.467h-5.227V80.306z M162.049,92.301h5.227v31.046h-5.227V92.301z"/>
		<path d="M172.713,96.034c2.383-3.077,5.938-4.615,10.666-4.615c1.402,0,2.674,0.323,3.814,0.97
			c1.141,0.647,2.094,1.344,2.854,2.088c0.28,0.274,0.53,0.539,0.751,0.794c0.22,0.255,0.43,0.499,0.632,0.734v-3.704h5.167v29.635
			c0,5.762-1.473,9.662-4.417,11.701c-2.944,2.038-6.198,3.058-9.764,3.058c-0.682,0-1.483-0.06-2.403-0.177
			c-0.922-0.117-1.885-0.313-2.885-0.588c-1.764-0.549-3.375-1.51-4.836-2.881c-1.463-1.373-2.194-3.391-2.194-6.057l5.228,0.06
			c-0.119,1.449,0.562,2.636,2.044,3.557c1.48,0.921,3.163,1.382,5.047,1.382c0.159,0,0.33,0,0.511,0c0.18,0,0.369-0.021,0.57-0.059
			c2.004-0.196,3.836-1.05,5.498-2.559c1.662-1.51,2.494-3.891,2.494-7.144c0-0.274,0-0.548,0-0.823c0-0.274-0.021-0.548-0.06-0.824
			c-0.962,0.941-1.944,1.707-2.945,2.294c-1.002,0.589-2.023,1.038-3.064,1.353c-0.601,0.196-1.201,0.343-1.803,0.441
			c-0.601,0.098-1.201,0.147-1.802,0.147c-3.565,0.038-6.641-1.433-9.224-4.411c-2.584-2.978-3.735-6.781-3.455-11.407
			C169.138,103.434,170.33,99.111,172.713,96.034z M177.43,117.35c1.603,1.999,3.385,3.019,5.348,3.057c0.039,0,0.091,0,0.15,0
			c0.061,0,0.109,0,0.15,0c2.202-0.117,4.206-1.303,6.008-3.557c1.804-2.255,2.585-5.184,2.345-8.791
			c0.079-3.723-0.702-6.487-2.345-8.291c-1.643-1.802-3.506-2.705-5.588-2.705c-0.039,0-0.1,0-0.18,0s-0.141,0-0.18,0
			c-2.005,0.119-3.855,1.06-5.559,2.823c-1.703,1.765-2.614,4.331-2.734,7.703C174.966,112.097,175.829,115.35,177.43,117.35z"/>
		<path d="M200.923,92.301h5.167v4.175c0.359-1.295,1.542-2.431,3.546-3.411c2.002-0.979,4.165-1.508,6.488-1.587
			c0.122,0,0.23,0,0.331,0c0.1,0,0.19,0,0.271,0c2.482-0.039,4.706,0.628,6.669,1.999c1.963,1.373,2.824,3.764,2.584,7.174v22.696
			h-5.168v-21.756c0-1.804-0.581-3.146-1.742-4.028c-1.162-0.881-2.504-1.322-4.025-1.322c-0.241,0-0.492,0.01-0.752,0.029
			c-0.26,0.021-0.51,0.049-0.75,0.089c-1.883,0.353-3.596,1.313-5.139,2.88c-1.541,1.568-2.312,3.744-2.312,6.527v17.581h-5.167
			V92.301z"/>
	</g>
	<path fill="#F15E24" d="M220.729,21.389c-0.006,0-0.011,0-0.018,0c-0.066,0-0.133,0.007-0.196,0.021
		c-0.147,0.032-0.281,0.1-0.393,0.195c-0.092,0.077-0.169,0.172-0.226,0.281c-0.039,0.08-0.069,0.165-0.086,0.256
		c-0.83,4.136-2.015,8.292-3.519,12.353c-8.435,22.803-25.88,39.353-41.479,39.353c-2.395,0-4.715-0.393-6.898-1.166
		c-5.59-1.98-10.131-6.418-13.135-12.831c-5.715-12.206-5.354-29.692,0.969-46.777c1.494-4.054,3.307-7.993,5.385-11.71
		c0.236-0.422,0.104-0.956-0.305-1.218C160.676,0.047,160.504,0,160.334,0c-0.283,0-0.561,0.13-0.738,0.374
		c-4.664,6.354-8.496,13.54-11.387,21.359c-6.919,18.706-7.281,37.919-0.969,51.397c3.428,7.317,8.65,12.392,15.105,14.68
		c2.535,0.897,5.225,1.354,7.996,1.354c8.451,0,17.691-4.281,26.018-12.056c8.377-7.821,15.494-18.898,20.041-31.191
		c2.885-7.797,4.641-15.695,5.221-23.478c0.006-0.044,0.01-0.088,0.01-0.133C221.631,21.804,221.229,21.396,220.729,21.389z"/>
	<g>
		<path d="M181.575,35.736c-8.854-3.135-18.664,1.462-21.922,10.269c-3.257,8.806,1.273,18.484,10.125,21.62
			c8.846,3.135,18.66-1.462,21.92-10.268C194.954,48.552,190.42,38.871,181.575,35.736z M172.344,61.151
			c-5.034-1.941-7.628-7.331-6.078-12.311c0.51,4.02,3.193,7.647,7.314,9.234c4.122,1.588,8.612,0.726,11.786-1.875
			C183.033,60.878,177.378,63.09,172.344,61.151z"/>
	</g>
</g>
</svg>
